<?xml version="1.0" encoding="utf-8"?>
<!-- Generator: Adobe Illustrator 27.5.0, SVG Export Plug-In . SVG Version: 6.00 Build 0)  -->
<svg version="1.1" xmlns="http://www.w3.org/2000/svg" xmlns:xlink="http://www.w3.org/1999/xlink" x="0px" y="0px"
	 viewBox="0 0 841.89 841.89" style="enable-background:new 0 0 841.89 841.89;" xml:space="preserve">
<g id="ref">
</g>
<g id="bg">
	
		<ellipse transform="matrix(0.7071 -0.7071 0.7071 0.7071 -174.3611 420.9449)" style="fill:#CAE0ED;" cx="420.945" cy="420.945" rx="337" ry="337"/>
</g>
<g id="graphics">
	<g>
		<g>
			<g>
				<path style="fill:#98AFBE;" d="M453.828,226.953c-13.632,0-25.923-7.363-32.371-19.301H218.023
					c-6.448,11.938-18.739,19.301-32.372,19.301c-12.953,0-25.099-6.96-31.697-18.164c-0.364-0.619-0.369-1.385-0.013-2.008
					c0.356-0.623,1.019-1.007,1.736-1.007h30.156V174.54h-30.156c-0.718,0-1.38-0.385-1.736-1.008
					c-0.356-0.623-0.351-1.389,0.013-2.007c6.604-11.206,18.749-18.168,31.697-18.168c13.757,0,26.468,7.806,32.739,19.995h202.7
					c6.269-12.188,18.98-19.995,32.737-19.995c12.947,0,25.091,6.962,31.693,18.168c0.364,0.618,0.37,1.384,0.013,2.007
					c-0.356,0.623-1.019,1.008-1.736,1.008h-30.154v31.233h30.154c0.718,0,1.38,0.384,1.736,1.007
					c0.356,0.623,0.351,1.389-0.013,2.008C478.922,219.993,466.778,226.953,453.828,226.953z"/>
				<path style="fill:#284356;" d="M453.828,155.357c12.777,0,23.918,6.911,29.97,17.183h-32.154v35.233h32.154
					c-6.049,10.27-17.192,17.179-29.97,17.179c-13.649,0-25.456-7.861-31.156-19.301c-2.962,0-203.097,0-205.863,0
					c-5.7,11.439-17.508,19.301-31.157,19.301c-12.78,0-23.926-6.91-29.974-17.179h32.156V172.54h-32.156
					c6.053-10.272,17.193-17.183,29.974-17.183c13.923,0,25.932,8.18,31.495,19.995c2.748,0,202.241,0,205.188,0
					C427.897,163.537,439.904,155.357,453.828,155.357 M453.828,151.357c-14.092,0-27.143,7.769-33.935,19.995H219.588
					c-6.794-12.226-19.846-19.995-33.937-19.995c-13.653,0-26.458,7.339-33.42,19.152c-0.729,1.237-0.739,2.769-0.026,4.015
					c0.712,1.247,2.037,2.016,3.473,2.016h28.156v27.233h-28.156c-1.435,0-2.761,0.769-3.473,2.015
					c-0.712,1.246-0.702,2.778,0.026,4.015c6.956,11.812,19.762,19.149,33.42,19.149c13.971,0,26.605-7.333,33.544-19.301h201.089
					c6.94,11.968,19.573,19.301,33.543,19.301c13.655,0,26.459-7.337,33.416-19.149c0.729-1.237,0.739-2.769,0.026-4.015
					c-0.712-1.246-2.037-2.015-3.473-2.015h-28.154V176.54h28.154c1.436,0,2.761-0.769,3.473-2.015
					c0.712-1.247,0.702-2.779-0.026-4.015C480.284,158.696,467.479,151.357,453.828,151.357L453.828,151.357z"/>
			</g>
		</g>
		<g>
			<path style="fill:#FF7550;" d="M481.487,673.094c-11.394,0-20.663-9.271-20.663-20.665v-1.586
				c-7.129-3.679-11.667-11.051-11.667-19.134c0-8.079,4.538-15.44,11.667-19.105v-0.502c0-2.648,2.154-4.801,4.801-4.801
				c1.982,0,3.686,1.21,4.417,2.93c0.205-0.007,0.406-0.01,0.605-0.01h63.451c5.651,0,11.185,2.291,15.183,6.286
				c2.046,2.046,4.879,3.219,7.771,3.219h17.595c2.857,0,5.263,1.81,6.133,4.374h156.386c0.676,0,1.274,0.336,1.636,0.85
				c1.636,1.521,3.83,2.389,6.068,2.389h0.267c1.104,0,2,0.896,2,2v5.684c0,1.042-0.8,1.91-1.839,1.993l-0.267,0.021
				c-0.053,0.005-0.105,0.007-0.159,0.007c-2.341,0.002-4.637,0.956-6.298,2.616c-0.382,0.382-0.894,0.585-1.414,0.585
				c-0.078,0-0.156-0.005-0.234-0.014H580.502c-1.051,2.219-3.301,3.703-5.855,3.703h-17.708c-2.866,0-5.67,1.162-7.694,3.188
				c-3.959,3.958-9.438,6.228-15.034,6.228c0,0-63.713-0.107-63.787-0.108c0.102,5.671,4.747,10.252,10.442,10.252h39.352
				c2.646,0,4.8,2.153,4.8,4.801c0,2.647-2.153,4.8-4.8,4.8H481.487z"/>
			<path style="fill:#284356;" d="M465.625,609.301c1.546,0,2.796,1.254,2.796,2.801v0.255c0.731-0.083,1.472-0.136,2.226-0.136
				h63.451c5.152,0,10.125,2.06,13.769,5.701c2.434,2.433,5.748,3.804,9.185,3.804h17.595c2.439,0,4.414,1.949,4.479,4.374H727.96
				h9.205v0.05c2.041,2.038,4.82,3.188,7.704,3.188h0.267v5.684l-0.267,0.022c-2.886,0.003-5.668,1.161-7.71,3.201v-0.014H579.059
				c-0.374,2.102-2.201,3.703-4.412,3.703h-17.708c-3.408,0-6.702,1.365-9.109,3.775c-3.607,3.606-8.52,5.641-13.619,5.641
				c-0.018,0-0.037,0-0.055,0l-63.509-0.106c-0.754-0.002-1.494-0.056-2.226-0.141v1.948c0,6.873,5.573,12.442,12.444,12.442h39.352
				c1.543,0,2.8,1.255,2.8,2.801s-1.257,2.8-2.8,2.8h-38.729c-10.309,0-18.663-8.357-18.663-18.665v-2.846
				c-6.869-3.028-11.667-9.889-11.667-17.874c0-7.982,4.801-14.83,11.667-17.844v-1.764
				C462.824,610.555,464.078,609.301,465.625,609.301 M465.625,605.301c-3.513,0-6.412,2.677-6.765,6.098
				c-7.185,4.169-11.703,11.882-11.703,20.311c0,8.418,4.502,16.13,11.667,20.316v0.403c0,12.497,10.167,22.665,22.663,22.665
				h38.729c3.75,0,6.8-3.051,6.8-6.8c0-3.75-3.05-6.801-6.8-6.801h-39.352c-3.897,0-7.186-2.652-8.155-6.246l61.438,0.103h0.062
				c6.122,0,12.117-2.482,16.447-6.812c1.654-1.656,3.942-2.604,6.281-2.604h17.708c2.883,0,5.469-1.444,7.008-3.703h155.248
				c0.088,0.006,0.176,0.009,0.264,0.009c1.038,0,2.057-0.403,2.82-1.165c1.29-1.289,3.071-2.029,4.887-2.031
				c0.106,0,0.211-0.005,0.317-0.013l0.267-0.021c2.078-0.167,3.679-1.902,3.679-3.987v-5.684c0-2.209-1.791-4-4-4h-0.267
				c-1.725,0-3.418-0.665-4.685-1.834c-0.733-0.856-1.814-1.404-3.02-1.404h-9.205H582.079c-1.44-2.623-4.218-4.374-7.433-4.374
				h-17.595c-2.366,0-4.683-0.96-6.357-2.633c-4.371-4.367-10.421-6.872-16.598-6.872h-62.895
				C469.974,606.457,467.932,605.301,465.625,605.301L465.625,605.301z"/>
		</g>
		<g>
			<g>
				<path style="fill:#FFC747;" d="M181.741,457.829c-1.683,0-3.151-1.197-3.491-2.847l-1.188-5.764
					c-0.286,0.006-0.577,0.01-0.869,0.01c-2.192,0-4.387-0.184-6.538-0.547l-1.886,5.689c-0.485,1.462-1.846,2.443-3.385,2.443
					c-0.382,0-0.76-0.062-1.124-0.182l-5.231-1.734c-0.903-0.299-1.637-0.933-2.065-1.784c-0.428-0.852-0.498-1.818-0.198-2.724
					l1.922-5.804c-2.148-1.156-4.188-2.52-6.089-4.065l-4.607,4.098c-0.655,0.582-1.496,0.901-2.37,0.901
					c-1.018,0-1.99-0.436-2.666-1.197l-3.661-4.117c-1.306-1.468-1.175-3.727,0.293-5.034l4.607-4.097
					c-1.314-2.069-2.431-4.257-3.328-6.524l-5.989,1.235c-0.238,0.049-0.48,0.073-0.721,0.073c-1.685,0-3.154-1.199-3.492-2.851
					l-1.113-5.396c-0.397-1.926,0.846-3.815,2.771-4.213l5.871-1.21c-0.126-2.47-0.015-4.957,0.33-7.419l-5.586-1.854
					c-1.866-0.619-2.881-2.642-2.262-4.508l1.734-5.231c0.482-1.461,1.843-2.445,3.384-2.445c0.381,0,0.759,0.061,1.122,0.182
					l5.362,1.778c1.14-2.275,2.502-4.435,4.064-6.443l-3.652-4.107c-1.307-1.471-1.174-3.729,0.294-5.035l4.116-3.663
					c0.654-0.582,1.495-0.901,2.37-0.901c1.018,0,1.989,0.436,2.665,1.195l3.478,3.909c2.187-1.451,4.511-2.676,6.933-3.654
					l-1.024-4.965c-0.192-0.933-0.01-1.885,0.514-2.681c0.524-0.796,1.327-1.34,2.26-1.532l5.399-1.112
					c0.237-0.049,0.48-0.074,0.721-0.074c1.684,0,3.152,1.198,3.491,2.848l0.979,4.748c0.744-0.044,1.524-0.068,2.297-0.068
					c1.909,0,3.828,0.141,5.718,0.42l1.488-4.491c0.483-1.461,1.843-2.443,3.383-2.443c0.383,0,0.762,0.062,1.127,0.183l5.23,1.734
					c0.903,0.298,1.637,0.933,2.065,1.784c0.428,0.852,0.498,1.819,0.198,2.724l-1.445,4.358c2.422,1.237,4.708,2.726,6.816,4.439
					l3.401-3.026c0.653-0.581,1.495-0.902,2.369-0.902c1.018,0,1.99,0.436,2.666,1.197l3.662,4.118
					c0.633,0.711,0.951,1.627,0.895,2.578c-0.055,0.952-0.479,1.825-1.191,2.458l-3.399,3.025c1.457,2.298,2.669,4.741,3.614,7.286
					l4.497-0.929c0.238-0.049,0.48-0.074,0.722-0.074c1.683,0,3.151,1.198,3.492,2.848l1.114,5.399
					c0.397,1.926-0.846,3.816-2.771,4.213l-4.634,0.957c0.079,2.671-0.117,5.353-0.585,7.998l4.606,1.528
					c0.903,0.299,1.637,0.933,2.064,1.785c0.428,0.853,0.498,1.82,0.196,2.726l-1.732,5.229c-0.485,1.463-1.846,2.445-3.385,2.445
					l0,0c-0.381,0-0.759-0.061-1.122-0.182l-4.814-1.598c-1.259,2.297-2.747,4.462-4.439,6.459l3.479,3.912
					c0.633,0.712,0.951,1.627,0.895,2.578c-0.056,0.952-0.479,1.824-1.19,2.456l-4.116,3.66c-0.653,0.582-1.495,0.902-2.37,0.902
					c-1.017,0-1.988-0.436-2.664-1.195l-3.656-4.108c-2.172,1.315-4.477,2.418-6.871,3.286l1.14,5.535
					c0.192,0.932,0.01,1.885-0.515,2.681s-1.327,1.34-2.26,1.531l-5.398,1.112C182.226,457.805,181.982,457.829,181.741,457.829z
					 M175.61,388.64c-1.153,0-2.319,0.092-3.467,0.273c-5.828,0.918-10.949,4.05-14.42,8.82c-3.471,4.77-4.876,10.606-3.958,16.434
					c1.703,10.808,10.863,18.652,21.782,18.652c1.153,0,2.321-0.092,3.47-0.273c5.828-0.918,10.949-4.05,14.42-8.819
					c3.472-4.771,4.878-10.607,3.96-16.435C195.694,396.484,186.532,388.64,175.61,388.64z"/>
			</g>
			<g>
				<path style="fill:#284356;" d="M169.419,365.63c0.727,0,1.38,0.51,1.532,1.25l1.178,5.717c0.085,0.414,0.46,0.694,0.876,0.694
					c0.026,0,0.053-0.001,0.08-0.003c1.032-0.086,2.066-0.129,3.101-0.129c2.114,0,4.227,0.18,6.313,0.54
					c0.052,0.009,0.103,0.013,0.154,0.013c0.383,0,0.733-0.245,0.856-0.617l1.782-5.377c0.217-0.657,0.828-1.073,1.485-1.073
					c0.164,0,0.331,0.026,0.495,0.081l5.232,1.735c0.821,0.272,1.267,1.159,0.994,1.98l-1.752,5.284
					c-0.142,0.425,0.07,0.885,0.475,1.079c2.826,1.356,5.51,3.086,7.974,5.19c0.173,0.147,0.389,0.223,0.603,0.223
					c0.21,0,0.417-0.072,0.585-0.22l4.115-3.661c0.298-0.265,0.67-0.396,1.04-0.396c0.432,0,0.861,0.178,1.171,0.526l3.662,4.118
					c0.575,0.647,0.518,1.637-0.129,2.211l-4.115,3.662c-0.343,0.305-0.374,0.82-0.119,1.201c1.799,2.693,3.204,5.562,4.219,8.526
					c0.123,0.36,0.463,0.591,0.831,0.591c0.059,0,0.118-0.005,0.177-0.018l5.452-1.126c0.106-0.022,0.213-0.033,0.318-0.033
					c0.728,0,1.38,0.511,1.533,1.251l1.114,5.399c0.175,0.848-0.37,1.676-1.217,1.851l-5.55,1.146
					c-0.436,0.091-0.741,0.488-0.717,0.933c0.17,3.146-0.064,6.303-0.689,9.394c-0.088,0.441,0.15,0.888,0.576,1.029l5.541,1.839
					c0.821,0.271,1.267,1.159,0.993,1.98l-1.733,5.232c-0.218,0.657-0.83,1.074-1.487,1.074c-0.163,0-0.329-0.025-0.494-0.08
					l-5.689-1.889c-0.094-0.031-0.189-0.046-0.284-0.046c-0.332,0-0.649,0.183-0.807,0.492c-1.399,2.708-3.15,5.273-5.252,7.628
					c-0.296,0.329-0.298,0.829-0.005,1.16l4.14,4.655c0.575,0.646,0.517,1.637-0.129,2.21l-4.117,3.661
					c-0.299,0.266-0.67,0.396-1.04,0.396c-0.432,0-0.862-0.178-1.171-0.525l-4.266-4.794c-0.178-0.199-0.427-0.303-0.679-0.303
					c-0.171,0-0.343,0.048-0.495,0.143c-2.577,1.646-5.305,2.937-8.119,3.879c-0.431,0.142-0.713,0.572-0.62,1.017l1.339,6.504
					c0.175,0.846-0.37,1.676-1.218,1.85l-5.399,1.112c-0.106,0.022-0.213,0.032-0.317,0.032c-0.727,0-1.379-0.51-1.532-1.251
					l-1.374-6.666c-0.086-0.417-0.447-0.725-0.87-0.725c-0.013,0-0.026,0-0.039,0.001c-0.577,0.026-1.154,0.04-1.732,0.04
					c-2.375,0-4.749-0.226-7.085-0.678c-0.062-0.012-0.124-0.018-0.186-0.018c-0.382,0-0.737,0.225-0.86,0.597l-2.191,6.612
					c-0.218,0.656-0.83,1.072-1.486,1.072c-0.164,0-0.33-0.025-0.494-0.08L158.659,453c-0.821-0.272-1.267-1.158-0.994-1.979
					l2.217-6.693c0.136-0.41-0.023-0.871-0.41-1.065c-2.573-1.301-5.02-2.921-7.281-4.852c-0.18-0.154-0.406-0.235-0.629-0.235
					c-0.207,0-0.412,0.07-0.576,0.217l-5.321,4.733c-0.299,0.266-0.67,0.396-1.041,0.396c-0.432,0-0.861-0.177-1.171-0.525
					l-3.661-4.118c-0.575-0.647-0.517-1.637,0.129-2.212l5.32-4.731c0.328-0.293,0.401-0.781,0.157-1.146
					c-1.659-2.471-2.987-5.088-3.983-7.794c-0.134-0.366-0.479-0.609-0.856-0.609c-0.059,0-0.118,0.006-0.177,0.018l-6.905,1.424
					c-0.107,0.022-0.212,0.032-0.317,0.032c-0.728,0-1.381-0.51-1.533-1.252l-1.113-5.398c-0.175-0.848,0.37-1.676,1.217-1.851
					l6.822-1.405c0.428-0.089,0.735-0.474,0.702-0.909c-0.227-2.949-0.097-5.915,0.379-8.831c0.073-0.451-0.17-0.905-0.604-1.05
					l-6.46-2.144c-0.821-0.272-1.266-1.158-0.993-1.979l1.734-5.231c0.217-0.658,0.829-1.074,1.486-1.074
					c0.164,0,0.33,0.026,0.494,0.08l6.299,2.089c0.092,0.03,0.186,0.045,0.278,0.045c0.327,0,0.637-0.182,0.781-0.491
					c1.27-2.71,2.881-5.292,4.835-7.68c0.28-0.342,0.262-0.839-0.033-1.168l-4.264-4.793c-0.574-0.646-0.518-1.637,0.129-2.211
					l4.117-3.664c0.298-0.265,0.67-0.396,1.04-0.396c0.432,0,0.861,0.177,1.171,0.525l4.139,4.651
					c0.17,0.19,0.406,0.286,0.646,0.286c0.181,0,0.365-0.055,0.522-0.166c2.563-1.794,5.291-3.225,8.119-4.294
					c0.433-0.164,0.717-0.599,0.624-1.052l-1.21-5.87c-0.175-0.847,0.37-1.676,1.218-1.85l5.399-1.112
					C169.208,365.641,169.314,365.63,169.419,365.63 M175.546,434.819c1.247,0,2.511-0.098,3.782-0.298
					c13.139-2.069,22.115-14.399,20.044-27.541c-1.869-11.87-12.113-20.341-23.763-20.34c-1.246,0-2.509,0.097-3.778,0.297
					c-13.142,2.07-22.112,14.401-20.042,27.541C153.659,426.35,163.898,434.819,175.546,434.819 M169.418,361.63
					c-0.377,0-0.756,0.039-1.126,0.115l-5.398,1.112c-1.456,0.3-2.709,1.149-3.527,2.392c-0.817,1.242-1.102,2.728-0.801,4.184
					l0.694,3.366c-1.467,0.665-2.896,1.417-4.279,2.252l-2.349-2.64c-1.055-1.186-2.571-1.866-4.159-1.866
					c-1.365,0-2.679,0.5-3.699,1.407l-4.118,3.664c-2.291,2.037-2.498,5.561-0.46,7.856l2.572,2.891
					c-0.895,1.252-1.718,2.555-2.465,3.9l-3.754-1.245c-0.568-0.188-1.157-0.283-1.752-0.283c-2.406,0-4.53,1.535-5.284,3.82
					l-1.733,5.227c-0.468,1.411-0.358,2.919,0.308,4.248c0.667,1.329,1.811,2.318,3.222,2.787l4.037,1.339
					c-0.145,1.468-0.212,2.943-0.199,4.415l-4.225,0.87c-3.006,0.621-4.947,3.571-4.327,6.577l1.113,5.398
					c0.527,2.573,2.82,4.444,5.45,4.444c0.375,0,0.752-0.038,1.121-0.113l4.382-0.904c0.584,1.314,1.239,2.598,1.961,3.846
					l-3.361,2.988c-2.293,2.044-2.498,5.568-0.459,7.86l3.66,4.116c1.054,1.188,2.571,1.868,4.16,1.868
					c1.364,0,2.677-0.499,3.697-1.405l3.364-2.992c1.155,0.862,2.354,1.662,3.589,2.396l-1.405,4.244
					c-0.468,1.41-0.358,2.921,0.31,4.25c0.668,1.329,1.813,2.318,3.226,2.785l5.228,1.733c0.566,0.188,1.156,0.283,1.753,0.283
					c2.402,0,4.525-1.531,5.282-3.812l1.358-4.099c1.46,0.184,2.934,0.29,4.408,0.317l0.858,4.164
					c0.531,2.575,2.823,4.443,5.45,4.443c0.377,0,0.756-0.038,1.127-0.115l5.397-1.111c1.454-0.298,2.707-1.147,3.525-2.39
					c0.819-1.243,1.104-2.73,0.802-4.188l-0.798-3.876c1.426-0.586,2.814-1.251,4.16-1.992l2.572,2.891
					c1.058,1.186,2.573,1.866,4.16,1.866c1.366,0,2.679-0.5,3.7-1.408l4.116-3.66c1.11-0.985,1.771-2.348,1.857-3.833
					c0.087-1.484-0.41-2.914-1.398-4.025l-2.35-2.642c0.991-1.276,1.905-2.607,2.736-3.987l3.263,1.083
					c0.569,0.189,1.159,0.284,1.754,0.284c2.403,0,4.526-1.533,5.284-3.814l1.733-5.234c0.469-1.407,0.36-2.917-0.308-4.249
					c-0.668-1.331-1.814-2.32-3.227-2.788l-2.996-0.994c0.223-1.661,0.344-3.334,0.363-5.006l3.025-0.624
					c3.005-0.621,4.945-3.57,4.326-6.576l-1.114-5.4c-0.531-2.574-2.823-4.443-5.45-4.443c-0.377,0-0.755,0.039-1.126,0.115
					l-2.852,0.589c-0.664-1.579-1.426-3.115-2.283-4.599l2.158-1.92c1.109-0.986,1.77-2.348,1.856-3.834
					c0.087-1.484-0.41-2.914-1.398-4.024l-3.661-4.117c-1.055-1.187-2.572-1.868-4.16-1.868c-1.366,0-2.68,0.5-3.7,1.409
					l-2.156,1.918c-1.373-1.023-2.811-1.96-4.302-2.803l0.917-2.764c0.468-1.411,0.358-2.92-0.31-4.25
					c-0.668-1.329-1.814-2.319-3.226-2.786l-5.229-1.734c-0.564-0.188-1.156-0.284-1.753-0.284c-2.404,0-4.527,1.533-5.283,3.816
					l-0.97,2.928c-1.441-0.152-2.892-0.23-4.337-0.23c-0.226,0-0.453,0.002-0.68,0.006l-0.637-3.091
					c-0.528-2.573-2.82-4.442-5.449-4.443l0,0C169.419,361.63,169.419,361.63,169.418,361.63L169.418,361.63z M175.546,430.819
					c-9.928,0-18.257-7.135-19.806-16.963c-0.835-5.3,0.443-10.608,3.6-14.946c3.157-4.338,7.814-7.187,13.113-8.021
					c1.046-0.165,2.107-0.248,3.157-0.248c9.931-0.001,18.263,7.133,19.811,16.962c0.835,5.301-0.443,10.608-3.601,14.946
					c-3.157,4.338-7.815,7.187-13.114,8.022C177.659,430.735,176.596,430.819,175.546,430.819L175.546,430.819z"/>
			</g>
		</g>
		<g>
			<path style="fill:#98AFBE;" d="M661.659,351.51c-1.028,0-2.021-0.205-2.951-0.609c-33.828-14.598-76.038-57.374-83.654-129.877
				c-0.432-4.061,2.518-7.747,6.575-8.214c15.171-1.766,26.614-14.622,26.614-29.903c0-5.005-1.191-9.771-3.54-14.167
				c-0.947-1.778-1.141-3.817-0.55-5.744c0.604-1.91,1.958-3.518,3.72-4.429c11.549-5.946,30.254-13.032,53.803-13.032
				c23.711,0.016,42.378,6.985,53.863,12.829c1.789,0.913,3.156,2.532,3.751,4.442c0.596,1.921,0.39,4.031-0.565,5.79
				c-2.361,4.368-3.611,9.318-3.611,14.312c0,15.29,11.448,28.148,26.63,29.909c4.047,0.468,7.001,4.146,6.584,8.2
				c-7.517,72.661-49.767,115.377-83.665,129.88C663.715,351.298,662.678,351.51,661.659,351.51z"/>
			<path style="fill:#284356;" d="M661.675,147.534c23.325,0.016,41.668,6.868,52.956,12.611c1.319,0.673,2.31,1.846,2.749,3.254
				c0.438,1.409,0.292,2.942-0.413,4.241c-2.519,4.658-3.854,9.937-3.854,15.266c0,16.306,12.21,30.018,28.399,31.896
				c2.979,0.344,5.132,3.025,4.825,6.008c-7.428,71.801-49.06,113.955-82.462,128.246c-0.699,0.297-1.461,0.454-2.217,0.454
				c-0.735,0-1.471-0.146-2.154-0.443c-33.334-14.385-74.936-56.607-82.462-128.252c-0.318-2.993,1.831-5.675,4.814-6.018
				c16.18-1.883,28.385-15.585,28.385-31.89c0-5.329-1.268-10.416-3.776-15.11c-0.689-1.294-0.834-2.805-0.401-4.214
				c0.442-1.397,1.424-2.565,2.727-3.239C620.146,154.496,638.543,147.534,661.675,147.534 M661.678,143.534h-0.002h-0.001
				c-23.949,0-42.973,7.207-54.715,13.252c-2.237,1.157-3.951,3.192-4.709,5.588c-0.759,2.472-0.513,5.053,0.684,7.301
				c2.196,4.108,3.308,8.558,3.308,13.23c0,14.267-10.682,26.268-24.847,27.917c-5.139,0.592-8.877,5.264-8.33,10.415
				c7.706,73.357,50.527,116.687,84.854,131.501c1.175,0.51,2.436,0.771,3.739,0.771c1.286,0,2.594-0.267,3.782-0.772
				c34.404-14.72,77.269-57.993,84.875-131.516c0.528-5.139-3.215-9.801-8.345-10.394c-14.171-1.643-24.858-13.647-24.858-27.922
				c0-4.663,1.166-9.284,3.372-13.363c1.208-2.224,1.47-4.898,0.715-7.33c-0.756-2.425-2.487-4.476-4.752-5.631
				C704.766,150.638,685.783,143.55,661.678,143.534L661.678,143.534z"/>
		</g>
		<g>
			<g>
				<path style="fill:#FFFFFF;" d="M709.744,598.25c-13.23,0-23.993-10.763-23.993-23.992v-81.421c0-2.136,1.736-3.874,3.871-3.874
					h1.744v-7.02h1.721v-26.204h33.904v26.204h1.832v7.02h1.041c2.136,0,3.874,1.738,3.874,3.874v81.421
					C733.738,587.487,722.975,598.25,709.744,598.25z"/>
				<path style="fill:#284356;" d="M724.991,457.739v26.204h1.832v7.02h3.041c1.036,0,1.874,0.84,1.874,1.874v81.421
					c0,12.146-9.849,21.992-21.994,21.992c-12.147,0-21.993-9.846-21.993-21.992v-81.421c0-1.034,0.838-1.874,1.871-1.874h3.744
					v-7.02h1.721v-26.204H724.991 M728.991,453.739h-4h-29.904h-4v4v22.204h-1.721v4v3.025c-3.119,0.134-5.615,2.715-5.615,5.868
					v81.421c0,14.332,11.66,25.992,25.993,25.992s25.994-11.66,25.994-25.992v-81.421c0-2.912-2.131-5.337-4.915-5.796v-3.098v-4
					h-1.832v-22.204V453.739L728.991,453.739z"/>
			</g>
			<g>
				<path style="fill:#FF7550;" d="M689.702,452.482c-2.135,0-3.871-1.737-3.871-3.873v-20.59c0-13.229,10.763-23.991,23.993-23.991
					c13.228,0,23.99,10.762,23.99,23.991v20.59c0,2.136-1.736,3.873-3.87,3.873H689.702z"/>
				<path style="fill:#284356;" d="M709.824,406.028c12.144,0,21.99,9.847,21.99,21.991v20.59c0,1.033-0.838,1.873-1.87,1.873
					h-40.242c-1.033,0-1.871-0.84-1.871-1.873v-20.59C687.831,415.875,697.677,406.028,709.824,406.028 M709.824,402.028
					c-14.333,0-25.993,11.66-25.993,25.991v20.59c0,3.238,2.634,5.873,5.871,5.873h40.242c3.237,0,5.87-2.635,5.87-5.873v-20.59
					C735.814,413.688,724.155,402.028,709.824,402.028L709.824,402.028z"/>
			</g>
		</g>
		<g>
			<g>
				<g>
					<path style="fill:#FFC747;" d="M661.659,349.51c-0.735,0-1.471-0.146-2.154-0.443c-33.334-14.385-74.936-56.607-82.462-128.252
						c-0.318-2.993,1.831-5.675,4.814-6.018c16.18-1.883,28.385-15.585,28.385-31.89c0-5.329-1.268-10.416-3.776-15.11
						c-0.689-1.294-0.834-2.805-0.401-4.214c0.442-1.397,1.424-2.565,2.727-3.239c11.355-5.847,29.752-12.809,52.884-12.809
						c23.325,0.016,41.668,6.868,52.956,12.611c1.319,0.673,2.31,1.846,2.749,3.254c0.438,1.409,0.292,2.942-0.413,4.241
						c-2.519,4.658-3.854,9.937-3.854,15.266c0,16.306,12.21,30.018,28.399,31.896c2.979,0.344,5.132,3.025,4.825,6.008
						c-7.428,71.801-49.06,113.955-82.462,128.246C663.177,349.353,662.415,349.51,661.659,349.51z M588.539,224.701
						c8.173,62.345,43.697,99.606,73.141,113.328c29.646-13.77,65.098-50.952,73.167-113.313
						c-18.974-4.689-32.692-21.791-32.692-41.81c0-5.214,0.949-10.395,2.779-15.24c-13.362-5.925-28.514-9.159-43.217-9.174
						c-18.052,0-32.896,4.669-43.239,9.347c1.794,4.803,2.728,9.925,2.728,15.068C621.205,202.914,607.499,220.012,588.539,224.701z
						"/>
				</g>
			</g>
		</g>
		<g>
			<path style="fill:#C1D7E3;stroke:#284356;stroke-width:4;stroke-linecap:round;stroke-linejoin:round;stroke-miterlimit:10;" d="
				M647.689,564.295c0,5.299-4.297,9.594-9.602,9.594H266.902c-5.298,0-9.595-4.295-9.595-9.594V269.908
				c0-5.302,4.297-9.601,9.595-9.601h371.185c5.306,0,9.602,4.298,9.602,9.601V564.295z"/>
			
				<rect x="269.61" y="302.696" style="fill:#FFFFFF;stroke:#284356;stroke-width:4;stroke-linecap:round;stroke-linejoin:round;stroke-miterlimit:10;" width="365.777" height="260.397"/>
			<rect x="291.052" y="318.306" style="fill:#FF7550;" width="91.793" height="11.996"/>
			<rect x="358.844" y="410.172" style="fill:#FF7550;" width="167.396" height="11.998"/>
			<rect x="538.241" y="410.172" style="fill:#FF7550;" width="43.198" height="11.998"/>
			<rect x="291.849" y="337.504" style="fill:#98AFBE;" width="45.901" height="12.002"/>
			<rect x="312.649" y="359.629" style="fill:#98AFBE;" width="45.899" height="12.002"/>
			<rect x="334.696" y="385.287" style="fill:#98AFBE;" width="45.899" height="11.998"/>
			<rect x="334.696" y="437.629" style="fill:#98AFBE;" width="45.899" height="11.998"/>
			<rect x="399.799" y="385.287" style="fill:#FFFFFF;" width="45.895" height="11.998"/>
			<rect x="539.141" y="385.287" style="fill:#FFFFFF;" width="45.896" height="11.998"/>
			<rect x="364.397" y="518.984" style="fill:#FFFFFF;" width="26.1" height="12"/>
			<rect x="291.849" y="492.732" style="fill:#98AFBE;" width="45.901" height="11.998"/>
			<rect x="314.901" y="518.984" style="fill:#98AFBE;" width="32.697" height="12"/>
			<rect x="351.048" y="337.504" style="fill:#FFC747;" width="91.495" height="12.002"/>
			<rect x="460.842" y="385.287" style="fill:#FFC747;" width="63.897" height="11.998"/>
			<rect x="407.295" y="518.984" style="fill:#FFC747;" width="36.302" height="12"/>
			<rect x="356.897" y="463.883" style="fill:#FFC747;" width="255.141" height="11.998"/>
			<path style="fill:#FF7550;" d="M295.673,281.679c0,4.31-3.495,7.8-7.802,7.8c-4.308,0-7.799-3.491-7.799-7.8
				c0-4.306,3.491-7.8,7.799-7.8C292.178,273.879,295.673,277.374,295.673,281.679z"/>
			<circle style="fill:#98AFBE;" cx="309.471" cy="281.679" r="7.8"/>
			<path style="fill:#FFFFFF;" d="M338.869,281.679c0,4.31-3.494,7.8-7.8,7.8c-4.308,0-7.799-3.491-7.799-7.8
				c0-4.306,3.491-7.8,7.799-7.8C335.375,273.879,338.869,277.374,338.869,281.679z"/>
		</g>
		<g>
			<rect x="696.854" y="468.729" style="fill:#2D3E50;" width="7.809" height="4.714"/>
			<rect x="715.344" y="468.729" style="fill:#2D3E50;" width="7.809" height="4.714"/>
			<rect x="692.308" y="483.61" style="fill:#284356;" width="35.573" height="11.197"/>
			<path style="fill:#FF7550;" d="M709.744,596.25c-12.147,0-21.993-9.846-21.993-21.992v-81.421c0-1.034,0.838-1.874,1.871-1.874
				h40.242c1.036,0,1.874,0.84,1.874,1.874v81.421C731.738,586.404,721.89,596.25,709.744,596.25z"/>
		</g>
		<g>
			<rect x="566.542" y="626.1" style="fill:#FFFFFF;" width="170.289" height="12.131"/>
			<path style="fill:#D1D3D4;" d="M727.627,638.172c-3.337,0-6.038-2.701-6.038-6.036c0-3.335,2.701-6.036,6.038-6.036h9.205v12.072
				H727.627z"/>
			<path style="fill:#D1D3D4;" d="M736.826,638.244c2.042-2.04,4.824-3.198,7.71-3.201l0.267-0.022v-5.684h-0.267
				c-2.886,0-5.668-1.152-7.71-3.193l0,0V638.244L736.826,638.244z"/>
			<path style="fill:#DE6646;" d="M477.886,622.711c-2.127,0-3.846-1.724-3.846-3.846c0-2.119,1.719-3.845,3.846-3.845h47.6
				c2.125,0,3.846,1.726,3.846,3.845c0,2.122-1.721,3.846-3.846,3.846H477.886z"/>
			<path style="fill:#DE6646;" d="M478.001,635.845c-2.124,0-3.847-1.724-3.847-3.845s1.723-3.846,3.847-3.846h47.597
				c2.129,0,3.847,1.725,3.847,3.846s-1.718,3.845-3.847,3.845H478.001z"/>
			<path style="fill:#DE6646;" d="M478.156,648.521c-2.127,0-3.846-1.724-3.846-3.846c0-2.119,1.719-3.845,3.846-3.845h47.6
				c2.127,0,3.846,1.725,3.846,3.845c0,2.122-1.719,3.846-3.846,3.846H478.156z"/>
			<path style="fill:#DE6646;" d="M578.805,637.442v-11.222c0-2.482-2.011-4.495-4.492-4.495h-17.595
				c-3.437,0-6.751-1.371-9.185-3.804c-0.961-0.961-2.029-1.797-3.157-2.527v32.816c1.114-0.727,2.169-1.55,3.119-2.502
				c2.407-2.41,5.701-3.775,9.109-3.775h17.708C576.794,641.934,578.805,639.922,578.805,637.442z"/>
			<g>
				<path style="fill:#FFFFFF;" d="M481.154,671.094c-10.309,0-18.663-8.357-18.663-18.665v-40.327c0-1.547,1.254-2.801,2.801-2.801
					c1.546,0,2.796,1.254,2.796,2.801v40.949c0,6.873,5.573,12.442,12.444,12.442h39.352c1.543,0,2.8,1.255,2.8,2.801
					s-1.257,2.8-2.8,2.8H481.154z"/>
			</g>
		</g>
		<path style="fill:#FFFFFF;stroke:#284356;stroke-width:4;stroke-linecap:round;stroke-linejoin:round;stroke-miterlimit:10;" d="
			M765.451,362c0,4.359-3.534,7.895-7.895,7.895H614.926c-4.36,0-7.895-3.535-7.895-7.895v-36.464c0-4.359,3.534-7.895,7.895-7.895
			h142.631c4.36,0,7.895,3.535,7.895,7.895V362z"/>
		<path style="fill:#FFFFFF;stroke:#284356;stroke-width:4;stroke-linecap:round;stroke-linejoin:round;stroke-miterlimit:10;" d="
			M386.514,181.48c0,4.359-3.534,7.894-7.895,7.894h-88.358c-4.36,0-7.895-3.535-7.895-7.894v-36.464
			c0-4.359,3.534-7.895,7.895-7.895h88.358c4.36,0,7.895,3.535,7.895,7.895V181.48z"/>
		<g>
			<path style="fill:#FFFFFF;stroke:#284356;stroke-width:4;stroke-linecap:round;stroke-linejoin:round;stroke-miterlimit:10;" d="
				M276.072,330.537c0,4.359-3.534,7.895-7.895,7.895h-74.358c-4.36,0-7.895-3.535-7.895-7.895v-36.462
				c0-4.359,3.534-7.895,7.895-7.895h74.358c4.36,0,7.895,3.535,7.895,7.895V330.537z"/>
			<g>
				<path style="fill:#98AFBE;" d="M266.31,313.002l-29.878,16.605c-0.346,0.197-0.642,0.219-0.89,0.068
					c-0.25-0.15-0.371-0.42-0.371-0.811v-33.12c0-0.39,0.121-0.659,0.371-0.811c0.248-0.149,0.544-0.125,0.89,0.068l29.878,16.605
					c0.345,0.194,0.517,0.428,0.517,0.697C266.827,312.577,266.654,312.81,266.31,313.002z"/>
				<path style="fill:#98AFBE;" d="M195.171,312.306c0-0.27,0.173-0.503,0.518-0.697l29.878-16.605
					c0.346-0.193,0.642-0.218,0.89-0.068c0.25,0.151,0.371,0.421,0.371,0.811v33.12c0,0.391-0.121,0.66-0.371,0.811
					c-0.248,0.15-0.544,0.129-0.89-0.068l-29.878-16.605C195.344,312.81,195.171,312.577,195.171,312.306z"/>
			</g>
		</g>
		<path style="fill:#98AFBE;stroke:#284356;stroke-width:4;stroke-miterlimit:10;" d="M122.925,645.894
			c-1.317,0.846-1.699,2.6-0.854,3.917l8.573,13.352c0.846,1.317,2.599,1.7,3.916,0.854l16.276-10.449
			c0.684-0.438,1.586-0.284,2.11,0.336c4.993,5.905,10.609,11.063,16.703,15.417c0.678,0.483,0.957,1.379,0.575,2.119l-8.789,17.032
			c-0.718,1.391-0.172,3.101,1.22,3.818l14.098,7.278c1.392,0.718,3.101,0.172,3.818-1.22l8.693-16.846
			c0.371-0.718,1.224-1.036,1.982-0.756c7.27,2.688,14.849,4.451,22.553,5.253c0.787,0.082,1.368,0.756,1.405,1.546l0.873,18.543
			c0.074,1.563,1.401,2.771,2.965,2.697l15.848-0.746c1.564-0.073,2.773-1.4,2.698-2.964l-0.855-18.119
			c-0.038-0.806,0.547-1.504,1.343-1.633c7.676-1.238,15.267-3.461,22.595-6.714c0.736-0.327,1.601-0.06,2.035,0.617l9.501,14.8
			c0.846,1.317,2.599,1.7,3.916,0.854l13.35-8.571c1.317-0.846,1.7-2.6,0.854-3.917l-9.244-14.4c-0.447-0.697-0.23-1.61,0.414-2.132
			c6.372-5.164,11.896-11.05,16.54-17.46c0.469-0.648,1.347-0.834,2.057-0.468l14.691,7.582c1.391,0.718,3.101,0.172,3.819-1.219
			l7.274-14.099c0.719-1.391,0.172-3.1-1.219-3.818l-14.345-7.402c-0.736-0.381-1.009-1.277-0.716-2.053
			c2.897-7.663,4.771-15.678,5.564-23.825c0.078-0.807,0.732-1.443,1.542-1.481l15.7-0.74c1.564-0.074,2.772-1.401,2.697-2.965
			l-0.748-15.85c-0.074-1.563-1.401-2.771-2.966-2.697l-15.451,0.729c-0.826,0.038-1.516-0.593-1.654-1.408
			c-1.365-8.024-3.815-15.951-7.396-23.571c-0.35-0.742-0.131-1.642,0.56-2.085l12.895-8.281c1.317-0.847,1.699-2.601,0.854-3.918
			l-8.573-13.352c-0.846-1.317-2.6-1.7-3.917-0.854l-12.897,8.28c-0.658,0.422-1.536,0.343-2.04-0.255
			c-5.473-6.491-11.713-12.068-18.499-16.685c-0.667-0.453-0.903-1.333-0.533-2.051l7.097-13.743
			c0.719-1.391,0.173-3.101-1.218-3.818l-14.105-7.28c-1.391-0.718-3.101-0.172-3.818,1.22l-7.205,13.965
			c-0.382,0.742-1.277,1.03-2.066,0.759c-7.741-2.666-15.811-4.291-23.984-4.838c-0.804-0.054-1.448-0.695-1.486-1.5l-0.759-16.121
			c-0.073-1.563-1.4-2.771-2.965-2.698l-15.848,0.744c-1.563,0.073-2.771,1.4-2.697,2.964l0.777,16.508
			c0.039,0.821-0.554,1.529-1.359,1.691c-7.762,1.564-15.408,4.144-22.755,7.795c-0.722,0.358-1.603,0.13-2.038-0.548l-9.243-14.396
			c-0.846-1.318-2.6-1.7-3.917-0.854l-13.349,8.567c-1.317,0.846-1.7,2.6-0.854,3.917l9.497,14.799
			c0.447,0.696,0.274,1.611-0.346,2.16c-6.003,5.314-11.179,11.294-15.495,17.761c-0.436,0.652-1.303,0.837-2,0.477l-16.113-8.319
			c-1.391-0.719-3.101-0.173-3.818,1.218l-7.276,14.1c-0.718,1.391-0.172,3.101,1.22,3.818l16.491,8.513
			c0.723,0.373,1.055,1.225,0.796,1.994c-2.472,7.34-4.018,14.965-4.592,22.697c-0.059,0.783-0.721,1.372-1.506,1.409l-18.934,0.892
			c-1.564,0.073-2.772,1.4-2.697,2.964l0.748,15.85c0.074,1.563,1.401,2.771,2.965,2.697l19.14-0.902
			c0.8-0.037,1.516,0.51,1.667,1.296c1.426,7.415,3.792,14.728,7.121,21.783c0.337,0.714,0.06,1.561-0.605,1.987L122.925,645.894z
			 M204.957,566.653c15.682-10.068,36.552-5.515,46.623,10.164c10.066,15.682,5.519,36.561-10.169,46.626
			c-15.676,10.066-36.553,5.513-46.621-10.166C184.722,597.593,189.275,576.72,204.957,566.653z"/>
		<path style="fill:#FFFFFF;stroke:#284356;stroke-width:4;stroke-linecap:round;stroke-linejoin:round;stroke-miterlimit:10;" d="
			M471.588,615.326c0,4.359-3.534,7.895-7.895,7.895h-171.73c-4.36,0-7.895-3.535-7.895-7.895v-36.464
			c0-4.359,3.534-7.895,7.895-7.895h171.73c4.36,0,7.895,3.535,7.895,7.895V615.326z"/>
		<g>
			<path style="fill:#284356;" d="M649.081,356.338h-4.184v-11.489h-11.751v11.489h-4.166V330.85h4.166v10.425h11.751V330.85h4.184
				V356.338z"/>
			<path style="fill:#284356;" d="M664.598,356.338h-4.167v-21.915h-7.497v-3.573h19.16v3.573h-7.496V356.338z"/>
			<path style="fill:#284356;" d="M687.018,356.338l-7.393-21.287h-0.139c0.197,3.162,0.296,6.125,0.296,8.892v12.395h-3.783V330.85
				h5.875l7.078,20.275h0.106l7.287-20.275h5.893v25.488h-4.01v-12.604c0-1.267,0.031-2.918,0.096-4.951
				c0.064-2.034,0.119-3.267,0.166-3.696h-0.14l-7.653,21.252H687.018z"/>
			<path style="fill:#284356;" d="M708.949,356.338V330.85h4.166v21.914h10.792v3.574H708.949z"/>
			<path style="fill:#284356;" d="M735.152,340.421c2.568,0,4.603,0.68,6.102,2.039c1.499,1.36,2.249,3.214,2.249,5.562
				c0,2.72-0.852,4.844-2.554,6.372c-1.703,1.528-4.124,2.293-7.262,2.293c-2.848,0-5.085-0.459-6.712-1.378v-3.713
				c0.941,0.535,2.022,0.947,3.242,1.237c1.221,0.291,2.355,0.436,3.4,0.436c1.848,0,3.254-0.413,4.219-1.238
				c0.965-0.825,1.447-2.033,1.447-3.626c0-3.045-1.941-4.567-5.823-4.567c-0.547,0-1.221,0.055-2.022,0.165
				c-0.802,0.111-1.505,0.235-2.109,0.375l-1.83-1.081l0.976-12.447h13.25v3.644h-9.641l-0.575,6.311
				c0.406-0.069,0.903-0.15,1.49-0.244C733.586,340.467,734.304,340.421,735.152,340.421z"/>
		</g>
		<g>
			<path style="fill:#284356;" d="M318.826,158.315c0,2.605-0.854,4.603-2.56,5.99c-1.707,1.388-4.136,2.082-7.287,2.082h-2.594
				v9.334h-4.078v-24.948h7.184c3.117,0,5.452,0.637,7.005,1.911C318.05,153.959,318.826,155.836,318.826,158.315z M306.386,162.957
				h2.167c2.094,0,3.629-0.363,4.607-1.092c0.979-0.728,1.468-1.865,1.468-3.413c0-1.434-0.439-2.502-1.314-3.208
				c-0.876-0.705-2.241-1.058-4.095-1.058h-2.833V162.957z"/>
			<path style="fill:#284356;" d="M343.484,175.722h-4.096v-11.245h-11.501v11.245h-4.079v-24.948h4.079v10.204h11.501v-10.204
				h4.096V175.722z"/>
			<path style="fill:#284356;" d="M366.572,158.315c0,2.605-0.854,4.603-2.56,5.99c-1.706,1.388-4.136,2.082-7.286,2.082h-2.594
				v9.334h-4.079v-24.948h7.185c3.117,0,5.452,0.637,7.005,1.911C365.796,153.959,366.572,155.836,366.572,158.315z
				 M354.133,162.957h2.167c2.093,0,3.629-0.363,4.607-1.092c0.978-0.728,1.467-1.865,1.467-3.413c0-1.434-0.438-2.502-1.314-3.208
				c-0.876-0.705-2.241-1.058-4.096-1.058h-2.832V162.957z"/>
		</g>
		<g>
			<path style="fill:#284356;" d="M304.149,615.724c-1.116,0-2.051-0.142-2.803-0.428v-3.435c0.957,0.239,1.789,0.358,2.495,0.358
				c2.233,0,3.35-1.412,3.35-4.238v-24.216h4.102v24.079c0,2.553-0.607,4.504-1.82,5.853
				C308.259,615.049,306.484,615.724,304.149,615.724z"/>
			<path style="fill:#284356;" d="M327.418,608.751l-0.803-2.632h-0.137c-0.912,1.151-1.829,1.935-2.751,2.35
				c-0.923,0.416-2.108,0.624-3.555,0.624c-1.857,0-3.307-0.501-4.35-1.504c-1.042-1.002-1.563-2.421-1.563-4.256
				c0-1.947,0.723-3.418,2.17-4.408c1.447-0.992,3.651-1.532,6.614-1.624l3.264-0.103v-1.008c0-1.208-0.282-2.111-0.846-2.709
				c-0.564-0.599-1.439-0.897-2.623-0.897c-0.969,0-1.897,0.143-2.786,0.427c-0.889,0.285-1.743,0.622-2.563,1.009l-1.299-2.871
				c1.025-0.535,2.147-0.942,3.367-1.222c1.219-0.279,2.37-0.419,3.452-0.419c2.404,0,4.218,0.524,5.443,1.572
				c1.224,1.049,1.837,2.694,1.837,4.939v12.732H327.418z M321.437,606.017c1.458,0,2.629-0.407,3.512-1.222
				c0.883-0.814,1.325-1.957,1.325-3.427v-1.641l-2.427,0.103c-1.892,0.068-3.267,0.385-4.128,0.948
				c-0.86,0.564-1.29,1.428-1.29,2.59c0,0.843,0.25,1.495,0.752,1.956C319.682,605.786,320.434,606.017,321.437,606.017z"/>
			<path style="fill:#284356;" d="M338.452,608.751l-7.178-18.901h4.238l3.845,10.989c0.661,1.846,1.06,3.338,1.196,4.477h0.137
				c0.103-0.82,0.501-2.313,1.196-4.477l3.845-10.989h4.272l-7.212,18.901H338.452z"/>
			<path style="fill:#284356;" d="M362.952,608.751l-0.803-2.632h-0.137c-0.912,1.151-1.829,1.935-2.751,2.35
				c-0.923,0.416-2.108,0.624-3.555,0.624c-1.857,0-3.307-0.501-4.35-1.504c-1.042-1.002-1.563-2.421-1.563-4.256
				c0-1.947,0.723-3.418,2.17-4.408c1.447-0.992,3.651-1.532,6.614-1.624l3.264-0.103v-1.008c0-1.208-0.282-2.111-0.846-2.709
				c-0.564-0.599-1.439-0.897-2.623-0.897c-0.969,0-1.897,0.143-2.786,0.427c-0.889,0.285-1.743,0.622-2.563,1.009l-1.299-2.871
				c1.025-0.535,2.147-0.942,3.367-1.222c1.219-0.279,2.37-0.419,3.452-0.419c2.404,0,4.218,0.524,5.443,1.572
				c1.224,1.049,1.837,2.694,1.837,4.939v12.732H362.952z M356.97,606.017c1.458,0,2.629-0.407,3.512-1.222
				c0.883-0.814,1.325-1.957,1.325-3.427v-1.641l-2.427,0.103c-1.892,0.068-3.267,0.385-4.128,0.948
				c-0.86,0.564-1.29,1.428-1.29,2.59c0,0.843,0.25,1.495,0.752,1.956C355.215,605.786,355.967,606.017,356.97,606.017z"/>
			<path style="fill:#284356;" d="M384.512,601.966c0,2.223-0.803,3.965-2.41,5.23c-1.606,1.264-3.823,1.896-6.648,1.896
				c-2.826,0-5.139-0.438-6.938-1.316v-3.861c1.139,0.535,2.35,0.957,3.632,1.264c1.281,0.309,2.475,0.462,3.58,0.462
				c1.618,0,2.811-0.308,3.58-0.923c0.77-0.615,1.154-1.441,1.154-2.478c0-0.934-0.354-1.726-1.06-2.375
				c-0.707-0.65-2.165-1.418-4.375-2.307c-2.279-0.924-3.885-1.977-4.819-3.162c-0.935-1.185-1.401-2.608-1.401-4.273
				c0-2.085,0.74-3.725,2.222-4.922c1.481-1.196,3.469-1.794,5.964-1.794c2.392,0,4.773,0.523,7.143,1.572l-1.299,3.332
				c-2.222-0.934-4.204-1.401-5.947-1.401c-1.322,0-2.324,0.288-3.008,0.863s-1.025,1.336-1.025,2.281
				c0,0.649,0.137,1.205,0.41,1.666c0.273,0.462,0.723,0.898,1.35,1.308c0.626,0.41,1.754,0.951,3.384,1.623
				c1.834,0.764,3.179,1.477,4.033,2.137c0.854,0.661,1.481,1.407,1.88,2.238C384.313,599.858,384.512,600.839,384.512,601.966z"/>
			<path style="fill:#284356;" d="M394.793,609.093c-2.86,0-5.033-0.834-6.52-2.504c-1.487-1.669-2.23-4.065-2.23-7.186
				c0-3.18,0.777-5.623,2.333-7.332c1.555-1.709,3.802-2.563,6.742-2.563c1.994,0,3.788,0.37,5.383,1.11l-1.213,3.23
				c-1.698-0.66-3.099-0.991-4.204-0.991c-3.27,0-4.905,2.171-4.905,6.511c0,2.119,0.407,3.712,1.222,4.777
				c0.814,1.065,2.008,1.598,3.581,1.598c1.789,0,3.48-0.444,5.076-1.333v3.503c-0.718,0.422-1.484,0.725-2.299,0.906
				C396.944,609.001,395.956,609.093,394.793,609.093z"/>
			<path style="fill:#284356;" d="M412.338,589.508c0.809,0,1.475,0.058,2,0.171l-0.393,3.742c-0.57-0.137-1.162-0.205-1.777-0.205
				c-1.607,0-2.908,0.524-3.905,1.572c-0.998,1.049-1.496,2.41-1.496,4.085v9.878h-4.016V589.85h3.145l0.53,3.333h0.205
				c0.626-1.129,1.444-2.022,2.453-2.684C410.09,589.839,411.176,589.508,412.338,589.508z"/>
			<path style="fill:#284356;" d="M415.852,584.843c0-0.719,0.196-1.27,0.59-1.658c0.393-0.387,0.954-0.581,1.683-0.581
				c0.706,0,1.256,0.194,1.649,0.581c0.394,0.388,0.59,0.939,0.59,1.658c0,0.684-0.196,1.222-0.59,1.614
				c-0.393,0.394-0.943,0.59-1.649,0.59c-0.73,0-1.29-0.196-1.683-0.59C416.048,586.065,415.852,585.526,415.852,584.843z
				 M420.107,608.751h-4.016V589.85h4.016V608.751z"/>
			<path style="fill:#284356;" d="M433.686,609.093c-2.393,0-4.25-0.86-5.571-2.58h-0.239c0.159,1.595,0.239,2.563,0.239,2.904
				v7.742h-4.016v-27.31h3.247c0.091,0.354,0.279,1.196,0.564,2.529h0.205c1.253-1.914,3.133-2.871,5.64-2.871
				c2.358,0,4.196,0.854,5.511,2.563c1.316,1.709,1.974,4.107,1.974,7.195c0,3.087-0.669,5.497-2.008,7.229
				C437.893,608.227,436.045,609.093,433.686,609.093z M432.712,592.789c-1.595,0-2.76,0.468-3.495,1.401
				c-0.734,0.935-1.102,2.427-1.102,4.478v0.599c0,2.301,0.364,3.968,1.094,4.998c0.729,1.031,1.919,1.547,3.572,1.547
				c1.39,0,2.461-0.569,3.213-1.709c0.752-1.139,1.128-2.763,1.128-4.871c0-2.119-0.374-3.722-1.119-4.81
				C435.256,593.333,434.159,592.789,432.712,592.789z"/>
			<path style="fill:#284356;" d="M451.197,605.846c0.979,0,1.959-0.153,2.939-0.462v3.025c-0.444,0.194-1.017,0.355-1.718,0.487
				c-0.7,0.131-1.427,0.196-2.179,0.196c-3.806,0-5.708-2.005-5.708-6.016v-10.185h-2.581v-1.777l2.768-1.47l1.367-3.999h2.478
				v4.204h5.383v3.042h-5.383v10.117c0,0.969,0.242,1.684,0.727,2.145C449.775,605.615,450.411,605.846,451.197,605.846z"/>
		</g>
	</g>
</g>
</svg>
